<?xml version="1.0" encoding="utf-8"?>
<!-- Generator: Adobe Illustrator 23.1.1, SVG Export Plug-In . SVG Version: 6.00 Build 0)  -->
<svg version="1.1" xmlns="http://www.w3.org/2000/svg" xmlns:xlink="http://www.w3.org/1999/xlink" x="0px" y="0px"
	 viewBox="0 0 216 108" style="enable-background:new 0 0 216 108;" xml:space="preserve">
<style type="text/css">
	.st0{fill:none;stroke:#FFFFFF;stroke-width:3.1063;}
	.st1{fill:none;stroke:#FFFFFF;stroke-width:3.2057;}
	.st2{fill:#FFFFFF;stroke:#FFFFFF;stroke-width:1.8236;}
	.st3{fill:none;stroke:#FFFFFF;stroke-width:4.8085;}
</style>
<g id="Layer_2">
</g>
<g id="Layer_1">
	<ellipse class="st0" cx="103.65" cy="61.7" rx="33.99" ry="24.23"/>
	<circle class="st1" cx="68.57" cy="43.35" r="8.95"/>
	<circle class="st1" cx="138.97" cy="43.35" r="8.95"/>
	<circle class="st2" cx="87.66" cy="55.68" r="5.25"/>
	<circle class="st2" cx="119.68" cy="55.68" r="5.25"/>
	<path class="st2" d="M114.19,75.94c0,0-8.55-7.37-21.51-0.39c0,0-4.68,3.12-5.22-1.7c0,0,0.52-4.8,10.44-6.49
		c0,0,9.66-2.23,17.59,2.45c0,0,5.16,1.96,3.96,5.95C119.45,75.77,116.69,79.19,114.19,75.94z"/>
	<path class="st2" d="M99.17,37.68l9.12-21.58c0,0-0.55-3.21,6.14-2.4l12.3,4.01v6.14l-12.3-4.01c0,0-1.09-0.53-1.48,1.6
		l-6.26,16.24H99.17z"/>
	<circle class="st3" cx="132.59" cy="20.59" r="7.02"/>
</g>
</svg>
